<!DOCTYPE svg PUBLIC "-//W3C//DTD SVG 1.1//EN" "http://www.w3.org/Graphics/SVG/1.1/DTD/svg11.dtd">
<svg xmlns="http://www.w3.org/2000/svg" viewBox="0 0 2000 826">
<path fill="#085da7" d="M1682.585 222.046c-40.793 6.368-63.111 30.875-60.19 66.091 2.582 31.132 22.646 46.739 73.72 57.344 46.601 9.676 59.019 17.085 61.398 36.636 5.741 47.165-64.027 62.875-132.744 29.891l-7.832-3.76.281 11.066.282 11.067 6 2.43c25.757 10.434 71.139 15.506 97.151 10.859 40.602-7.255 62.395-29.833 62.332-64.58-.066-36.204-15.927-49.707-73.483-62.554-50.257-11.219-61.009-18.453-60.993-41.036.012-15.456 5.778-25.053 19.11-31.804 24.426-12.369 68.176-8.067 100.259 9.859 2.407 1.345 4.432 2.446 4.5 2.447.068.001-.101-5.061-.376-11.25l-.5-11.252-9.5-3.293c-21.824-7.563-58.863-11.37-79.415-8.161M319.16 224.713c-.523.983-5.086 11.012-10.142 22.287-5.056 11.275-10.728 23.803-12.605 27.839-1.877 4.037-3.413 7.491-3.413 7.677 0 .186-1.629 3.858-3.621 8.161-3.614 7.809-30.514 67.202-43.513 96.073a90918.286 90918.286 0 0 1-13.967 31c-3.906 8.663-7.94 17.663-8.965 20l-1.863 4.25h19.704l6.221-14.25c7.258-16.626 6.338-15.434 16.284-21.097 33.445-19.043 77.094-19.401 115.902-.949 11.418 5.429 11.73 5.665 13.782 10.435 1.155 2.684 3.82 8.588 5.923 13.121 2.102 4.532 4.143 9.252 4.535 10.49.701 2.214.98 2.25 17.204 2.25 9.071 0 16.288-.337 16.04-.75-.249-.413-6.847-14.925-14.663-32.25s-17.484-38.7-21.485-47.5c-11.608-25.528-48.219-106.588-55.554-123l-6.704-15-9.075-.287c-7.871-.249-9.201-.05-10.025 1.5M425 223.316c0 .847-2.176 12.403-2.623 13.934-.482 1.647 1.939 1.75 41.056 1.75H505v203h31V239h41.5c37.742 0 41.5-.148 41.5-1.635 0-.899-.528-4.499-1.173-8L616.654 223h-95.827c-52.705 0-95.827.142-95.827.316M657 332.5V442h124.792l1.354-7.75 1.354-7.75-48.75-.259-48.75-.26V223h-30v109.5m249.632-106.75c-.781 1.512-4.884 10.4-9.117 19.75l-9.509 21c-2.31 5.1-14.112 31.194-23.745 52.5-4.103 9.075-10.291 22.8-13.75 30.5-3.46 7.7-7.716 17.105-9.458 20.9-1.742 3.795-7.455 16.395-12.695 28a15061.95 15061.95 0 0 1-14.443 31.893c-2.703 5.936-4.915 11.015-4.915 11.286 0 .272 4.353.365 9.673.207l9.672-.286 6.578-14.797 6.577-14.796 6.707-3.886c30.818-17.855 72.395-20.859 106.482-7.694 22.266 8.599 23.42 9.609 31.331 27.423l6.328 14.25h15.933c12.344 0 15.821-.282 15.437-1.25-.447-1.124-25.738-57.116-60.868-134.75a26805.847 26805.847 0 0 1-25.123-55.725L925.5 223.049l-8.724-.024c-8.517-.024-8.758.04-10.144 2.725M1066 332.5V442h18v-89.083c0-51.415.375-88.943.887-88.75.488.183 17.2 19.233 37.138 42.333 19.938 23.1 38.608 44.7 41.49 48 2.881 3.3 21.076 24.337 40.433 46.75l35.194 40.75H1263V223h-18v88.5c0 52.775-.369 88.5-.914 88.5-.921 0-9.626-9.723-31.785-35.5-6.619-7.7-20.982-24.364-31.918-37.031-59.42-68.826-76.573-88.651-83.207-96.169l-7.324-8.3H1066v109.5m235.854-101.75-1.354 7.75 41.75.261 41.75.261V442h30V239h83.839l-.831-3.25c-.458-1.787-1.124-5.387-1.481-8l-.65-4.75H1303.208l-1.354 7.75M1535 332.5V442h31V223h-31v109.5m-633.475-57.795c-4.282 9.787-17.221 39.313-28.754 65.614-11.532 26.3-20.797 47.988-20.589 48.196.208.208 4.415-1.244 9.348-3.228 30.606-12.305 68.603-12.065 98.419.623 4.041 1.72 7.574 2.9 7.852 2.622.278-.277-5.941-15.023-13.818-32.768A68741.073 68741.073 0 0 1 925.279 291c-7.909-17.875-14.738-32.858-15.174-33.295-.437-.437-4.298 7.213-8.58 17M292.834 323.25c-15.739 35.887-28.464 65.413-28.279 65.613.186.199 4.134-1.268 8.775-3.261 30.284-13.008 75.406-12.201 102.546 1.834 4.327 2.237 5.334 1.697 3.609-1.936-.783-1.65-5.52-12.225-10.528-23.5-35.149-79.148-44.277-99.769-45.04-101.75-.477-1.238-1.227-2.25-1.667-2.25-.44 0-13.677 29.363-29.416 65.25m95.916 214.53-12.75.28V607h9v-27l7.25.025 7.25.026 9.572 13.224 9.571 13.225 5.703.301 5.703.3-10.109-13.633c-5.56-7.498-9.958-13.741-9.774-13.873.184-.132 2.451-1.024 5.037-1.982 15.974-5.918 17.112-29.226 1.795-36.752-6.225-3.058-10.092-3.48-28.248-3.081m79.5-.019-22.25.277V607h49v-8h-39v-23h30l.001-3.75.002-3.75-15.002.3-15.001.3V545H493.121l-.311-3.673c-.17-2.02-.76-3.711-1.31-3.758-.55-.047-11.012.04-23.25.192m56.269.778c-6.923 2.637-13.519 10.71-13.519 16.546 0 8.384 6.359 13.881 23.5 20.316 13.584 5.099 16.5 7.482 16.5 13.48 0 11.762-19.935 14.135-34.087 4.057l-3-2.136-2.457 2.65c-3.354 3.62-3.239 3.904 3.202 7.933 12.893 8.064 32.776 7.313 41.044-1.551 9.664-10.361 4.913-24.207-10.202-29.73-22.602-8.258-24.5-9.467-24.5-15.606 0-9.956 16.389-12.983 28.791-5.318l3.406 2.105 2.366-2.892c3.293-4.027 3.239-4.123-4.268-7.636-8.097-3.789-20.052-4.779-26.776-2.218m74.41-.234c-31.644 8.965-35.334 51.61-5.651 65.321 8.927 4.123 26.268 4.265 34.722.284 27.777-13.081 27.777-50.982 0-63.666-6.674-3.048-21.635-4.046-29.071-1.939m77.821-.527-13.75.278V607h9v-27h14.811l7.344 10.082c4.04 5.545 8.364 11.62 9.61 13.5 2.13 3.215 2.597 3.418 7.872 3.418 4.347 0 5.386-.281 4.62-1.25-5.493-6.946-18.257-24.935-18.257-25.729 0-.562.569-1.021 1.265-1.021 6.677 0 14.558-8.858 15.427-17.339 1.899-18.539-7.567-24.497-37.942-23.883m75.203-.011-24.547.267.406 3.483.407 3.483H751v62h4.25l4.25.001V545.5l11.308-.283 11.309-.284-.309-3.61c-.366-4.291 2.825-3.911-29.855-3.556m57.605.725c-8.425 3.001-12.713 8.077-13.278 15.717-.701 9.474 4.599 14.783 20.391 20.427 16.378 5.854 20.548 9.369 18.902 15.931-2.672 10.645-23.6 11.947-34.33 2.135l-2.256-2.063-2.986 2.86c-3.743 3.587-2.738 5.028 6.772 9.71 23.214 11.428 49.197-3.266 40.323-22.804-2.312-5.091-5.38-7.01-20.596-12.885-12.847-4.959-17.5-8.279-17.5-12.485 0-9.582 13.963-13.354 26.378-7.126l6.122 3.072 2.25-2.546c2.947-3.335 2.857-3.901-1-6.258-7.899-4.828-21.252-6.513-29.192-3.685m101.618-.354c-4.88 1.406-11.607 8.579-12.929 13.787-1.093 4.307-1.082 4.337 3.479 9.214 2.517 2.69 4.396 5.023 4.175 5.184-15.342 11.153-18.122 23.611-7.676 34.405 6.922 7.152 22.87 8.414 34.15 2.702l5.774-2.923 2.702 3.31c2.492 3.054 3.088 3.286 7.675 2.997l4.974-.314-5.26-5.607-5.259-5.607 2.457-4.396c1.351-2.418 2.862-6.982 3.358-10.143l.901-5.747h-3.848c-2.613 0-3.849.445-3.849 1.385 0 2.9-3.356 11.615-4.473 11.615-1.621 0-31.527-32.538-31.527-34.302 0-2.362 4.118-6.85 7.636-8.319 6.718-2.807 15.239-.896 19.359 4.342 1.637 2.081 2.366 2.325 4.66 1.561 4.146-1.382 3.966-3.03-.834-7.629-6.419-6.151-16.164-8.246-25.645-5.515m90.812-.305c-.625.211-.988 12.984-.988 34.75V607h3.933c4.914 0 5.008-.287 4.939-15l-.054-11.5 7.014-.292c8.065-.336 6.176-1.925 19.671 16.542l7.49 10.25h5.004c2.751 0 5.003-.236 5.003-.525 0-.288-4.107-6.026-9.126-12.75-10.161-13.612-10.799-14.725-8.441-14.725 9.66 0 18.055-13.397 15.511-24.752-2.932-13.082-8.73-16.045-32.206-16.455-9.22-.161-17.207-.143-17.75.04m90.012-.063-20.5.27.182 34.23.181 34.23 24.069.268 24.068.268V599h-40.066l.283-11.25.283-11.25 15.25-.276 15.25-.276V569h-13.918c-18.498 0-17.082 1.045-17.082-12.607V545h38v-3.5c0-1.925-.338-3.533-.75-3.574-.412-.041-1.65-.154-2.75-.25-1.1-.097-11.225-.055-22.5.094m57.406.968c-8.85 3.809-12.406 8.422-12.406 16.093 0 10.142 4.932 14.503 24 21.219 11.465 4.039 15 7.028 15 12.686 0 12.058-23.3 14.352-35.318 3.477-1.774-1.606-1.996-1.549-4.277 1.102-3.22 3.744-3.136 4.011 2.345 7.499 15.24 9.697 36.122 7.919 43.981-3.743 1.783-2.645 2.269-4.765 2.269-9.89 0-9.12-4.174-13.196-19.09-18.643-17.456-6.375-19.91-8.105-19.91-14.038 0-10.277 16.932-13.143 29.397-4.976 2.459 1.611 2.616 1.575 5.039-1.18 3.457-3.931 3.386-4.064-3.976-7.51-8.399-3.93-20.597-4.875-27.054-2.096m56.728-.949c-.816.272-1.134 10.032-1.134 34.794V607h9v-34.5c0-18.975-.338-34.558-.75-34.629-2.142-.368-6.12-.414-7.116-.082m109.862.044c-.635.213-.996 12.794-.996 34.75V607h49v-8h-19.75l-19.75.001.131-11.251.13-11.25 15.178-.276 15.179-.277-.309-3.547-.309-3.547-14.75.023-14.75.024v-10.368c0-5.703-.273-11.08-.607-11.95-.54-1.409 1.493-1.582 18.56-1.582h19.168l-.311-3.53-.31-3.531-22.254-.219c-12.24-.121-22.703-.07-23.25.113m67.254-.069-2.25.375V607h9v-27c0-14.85.338-26.997.75-26.992.412.004 10.2 12.15 21.75 26.992l21 26.984 4.5-.242 4.5-.242.263-34.25c.208-27.034-.003-34.264-1-34.317-.695-.038-2.726-.259-4.513-.492l-3.25-.424v27.575c0 15.319-.388 27.427-.874 27.241-.947-.361-5.085-5.533-27.068-33.833-7.903-10.175-14.718-18.896-15.144-19.38-.889-1.01-4.388-1.401-7.664-.856m100.679.548c-31.014 8.74-34.681 51.948-5.546 65.347 5.521 2.539 7.189 2.815 17.117 2.827 12.922.016 16.165-.929 24.671-7.19l6.187-4.555-3.349-2.734-3.35-2.734-4.266 3.257c-17.779 13.571-44.435 4.989-46.947-15.115-3.393-27.158 23.779-42.373 46.509-26.043l4.685 3.366 2.68-1.952c3.606-2.627 3.363-3.726-1.665-7.51-9.834-7.402-24.98-10.274-36.726-6.964M1541 571.883V607h49v-8h-40v-23h31v-6.948l-15.25-.276-15.25-.276-.282-11.75-.281-11.75H1587v-7l-20.75-.014c-11.412-.007-21.763-.285-23-.616l-2.25-.603v35.116m78.728-33.556c-11.208 3.486-17.105 15.623-11.809 24.307 3.475 5.7 7.455 7.929 26.581 14.884 17.335 6.303 13.794 21.732-4.988 21.732-6.664 0-14.21-2.678-18.256-6.479l-2.269-2.132-2.993 2.867-2.992 2.867 2.078 2.213c6.385 6.796 25.175 10.559 35.374 7.084 9.587-3.266 14.546-9.472 14.546-18.203 0-9.29-4.787-13.557-22.308-19.882-12.553-4.532-15.437-6.283-16.714-10.152-3.796-11.502 13.529-16.822 27.651-8.49l3.81 2.249 2.865-3.206 2.864-3.206-3.099-1.884c-8.634-5.251-21.783-7.231-30.341-4.569M1238 572.5V607l12.75-.006c33.414-.015 48.64-10.813 48.64-34.494 0-23.955-13.907-34.5-45.495-34.5H1238v34.5m-853-13.361v14.14l11.275-.498c16.635-.734 21.725-4.129 21.725-14.493 0-9.853-5.985-13.273-23.25-13.282L385 545v14.139m215.698-12.695c-30.259 10.793-21.635 52.93 10.795 52.743 24.193-.139 36.746-27.47 20.776-45.233-7.229-8.041-20.94-11.302-31.571-7.51M672 559.139v14.14l11.428-.504c17.125-.756 23.311-5.084 22.245-15.566-.893-8.778-7.245-12.155-22.923-12.187L672 545v14.139m337.945-13.494c-.03.47-.09 6.705-.133 13.855l-.079 13 10.883-.037c8.76-.03 11.652-.42 14.819-2 10.261-5.118 10.986-17.976 1.306-23.155-3.508-1.876-26.69-3.315-26.796-1.663M1247 571.892V599h10.025c24.614 0 38.374-14.823 32.408-34.913-3.65-12.29-13.483-18.248-31.183-18.893l-11.25-.41v27.108m-338.953 2.297c-9.768 6.583-9.509 18.988.497 23.832 6.424 3.11 16.445 2.238 21.521-1.873l2.225-1.802-6.395-6.897a9895.89 9895.89 0 0 1-10.402-11.238l-4.007-4.339-3.439 2.317" fill-rule="evenodd"/>
</svg>